<svg width="30" height="24" viewBox="0 0 30 24" fill="none" xmlns="http://www.w3.org/2000/svg">
<path d="M29.4669 2.67357C29.0781 2.21408 28.5338 1.93341 27.934 1.88332L6.80769 0.119298C6.20781 0.069201 5.62457 0.255704 5.16502 0.644355C4.70735 1.03148 4.42709 1.57306 4.37541 2.16995L3.95037 6.15759H2.25321C1.0108 6.15759 0 7.16839 0 8.41081V21.6355C0 22.8779 1.0108 23.8887 2.25321 23.8887H23.4531C24.6956 23.8887 25.7064 22.8779 25.7064 21.6355V19.4902L26.4587 19.553C26.5221 19.5583 26.5852 19.5609 26.6478 19.5609C27.8061 19.5609 28.7935 18.6698 28.8916 17.4951L29.992 4.31629C30.0421 3.71647 29.8556 3.13312 29.4669 2.67357ZM2.25321 7.32947H23.4531C24.0494 7.32947 24.5345 7.81456 24.5345 8.41081V9.61584H1.17187V8.41081C1.17187 7.81456 1.65697 7.32947 2.25321 7.32947ZM1.17187 10.7877H24.5345V13.2187H1.17187V10.7877ZM23.4531 22.7168H2.25321C1.65697 22.7168 1.17187 22.2317 1.17187 21.6355V14.3906H24.5345V21.6355C24.5345 22.2317 24.0494 22.7168 23.4531 22.7168ZM28.8242 4.21874L27.7238 17.3975C27.6741 17.9917 27.1502 18.435 26.5562 18.3852L25.7064 18.3142V8.41081C25.7064 7.16839 24.6956 6.15759 23.4531 6.15759H5.12892L5.54136 2.28808C5.54183 2.28363 5.54224 2.27923 5.5426 2.27472C5.59222 1.68052 6.11582 1.23732 6.71019 1.28713L27.8366 3.05114C28.1244 3.07517 28.3857 3.20987 28.5722 3.43042C28.7587 3.65096 28.8482 3.93087 28.8242 4.21874Z" fill="white"/>
<path d="M22.0823 16.1327H16.4431C16.1195 16.1327 15.8572 16.395 15.8572 16.7186V20.3976C15.8572 20.7213 16.1195 20.9836 16.4431 20.9836H22.0823C22.4059 20.9836 22.6682 20.7213 22.6682 20.3976V16.7186C22.6682 16.395 22.4059 16.1327 22.0823 16.1327ZM21.4964 19.8117H17.0291V17.3045H21.4964V19.8117Z" fill="white"/>
</svg>
