<svg width="36" height="36" viewBox="0 0 36 36" fill="none" xmlns="http://www.w3.org/2000/svg">
<path d="M34.4695 0.901138H9.3234C8.4786 0.902123 7.79401 1.58671 7.79303 2.43152V9.36744L6.64314 7.6426C6.11679 6.84865 5.05825 6.61044 4.24257 7.10247L1.87681 8.52482C1.10207 8.97941 0.533727 9.71663 0.291228 10.5815C-0.571789 13.7239 0.0685645 19.1379 8.01513 27.0856C14.3346 33.3986 19.0464 35.0988 22.2938 35.0988C23.0456 35.1022 23.7945 35.0046 24.5203 34.8083C25.3849 34.5658 26.1221 33.9983 26.5776 33.2246L27.9981 30.8564C28.4882 30.0413 28.2502 28.985 27.458 28.4587L21.7932 24.6826C21.0162 24.1686 19.9746 24.3376 19.3998 25.0709L17.7506 27.1912C17.6672 27.301 17.5471 27.377 17.4122 27.4056C17.2774 27.4341 17.1367 27.4132 17.016 27.3466L16.7021 27.1738C15.6693 26.6108 14.3838 25.9099 11.7875 23.3136C11.526 23.0519 11.268 22.7868 11.0134 22.5184H34.4695C35.3122 22.519 35.9966 21.8379 35.9999 20.9952V2.43152C35.9989 1.58671 35.3144 0.902123 34.4695 0.901138ZM16.1278 28.2277L16.4327 28.3952C17.1991 28.8237 18.1638 28.6249 18.6982 27.9283L20.3475 25.8079C20.4379 25.6928 20.5683 25.6158 20.7128 25.5923C20.8574 25.5689 21.0054 25.6006 21.1276 25.6813L26.7924 29.4574C26.9163 29.54 27.0037 29.6671 27.0364 29.8123C27.0691 29.9576 27.0447 30.1099 26.9682 30.2376L25.5477 32.6058C25.2511 33.1145 24.7691 33.4887 24.2028 33.6501C21.3659 34.4302 16.4009 33.7701 8.86542 26.2341C1.32993 18.698 0.672275 13.7335 1.45061 10.899C1.61186 10.3328 1.98581 9.85089 2.49424 9.5541L4.86245 8.13294C4.99023 8.0566 5.14246 8.03227 5.28766 8.065C5.43287 8.09772 5.55995 8.18499 5.64262 8.30877L9.42053 13.9736C9.50134 14.0957 9.53317 14.2438 9.5097 14.3884C9.48623 14.533 9.40917 14.6634 9.29387 14.7537L7.17293 16.4035C6.47645 16.9378 6.27756 17.9023 6.70601 18.6685L6.87403 18.9734C7.47415 20.074 8.22014 21.4436 10.9394 24.1622C13.6588 26.881 15.0278 27.6275 16.1278 28.2277ZM34.7997 20.9953C34.7987 21.082 34.7635 21.1648 34.7016 21.2255C34.6397 21.2862 34.5563 21.32 34.4696 21.3194H9.9307C9.15124 20.428 8.47908 19.4483 7.92799 18.4002L7.75512 18.0852C7.68844 17.9647 7.66739 17.8243 7.69584 17.6896C7.72428 17.5549 7.80031 17.435 7.90999 17.3518L10.0309 15.702C10.7645 15.1274 10.9335 14.0857 10.4192 13.3086L8.99328 11.1684V2.43152C8.9928 2.38804 9.001 2.3449 9.01742 2.30464C9.03384 2.26438 9.05813 2.2278 9.08888 2.19706C9.11962 2.16631 9.1562 2.14202 9.19646 2.1256C9.23672 2.10919 9.27986 2.10098 9.32333 2.10146H34.4695C34.513 2.10098 34.5562 2.10919 34.5964 2.1256C34.6367 2.14202 34.6733 2.16631 34.704 2.19706C34.7347 2.2278 34.759 2.26438 34.7755 2.30464C34.7919 2.3449 34.8001 2.38804 34.7996 2.43152V20.9953H34.7997Z" fill="white"/>
<path d="M32.4027 3.67987L22.3724 11.2867C22.2341 11.3873 22.0675 11.4414 21.8965 11.4414C21.7255 11.4414 21.5589 11.3873 21.4206 11.2867L11.394 3.67987C11.3312 3.63222 11.2596 3.59742 11.1834 3.57744C11.1071 3.55746 11.0276 3.5527 10.9495 3.56343C10.8714 3.57416 10.7962 3.60017 10.7282 3.63998C10.6601 3.67978 10.6006 3.7326 10.5529 3.79542C10.5053 3.85823 10.4705 3.92981 10.4505 4.00608C10.4305 4.08234 10.4258 4.16179 10.4365 4.23989C10.4472 4.318 10.4732 4.39322 10.513 4.46127C10.5528 4.52932 10.6057 4.58886 10.6685 4.6365L20.6963 12.2427C21.0438 12.4995 21.4645 12.638 21.8966 12.638C22.3287 12.638 22.7494 12.4995 23.0969 12.2427L33.1277 4.6365C33.1906 4.58886 33.2435 4.5293 33.2833 4.46121C33.3231 4.39313 33.3491 4.31786 33.3598 4.23971C33.3705 4.16156 33.3657 4.08207 33.3457 4.00578C33.3256 3.9295 33.2907 3.85792 33.2429 3.79514C33.1467 3.66851 33.0042 3.58525 32.8467 3.56363C32.6891 3.54202 32.5295 3.58383 32.4027 3.67987ZM16.7749 12.2932L10.627 18.8768C10.5207 18.9936 10.4648 19.1476 10.4713 19.3054C10.4778 19.4632 10.5462 19.612 10.6617 19.7197C10.7772 19.8274 10.9305 19.8852 11.0883 19.8807C11.2462 19.8761 11.3959 19.8096 11.505 19.6954L17.6529 13.1088C17.7504 12.9908 17.7991 12.8399 17.789 12.6871C17.7789 12.5343 17.7107 12.3911 17.5986 12.2869C17.4864 12.1827 17.3386 12.1253 17.1855 12.1265C17.0324 12.1276 16.8855 12.1873 16.7749 12.2932ZM27.0579 12.2932C27.0041 12.2355 26.9395 12.189 26.8678 12.1563C26.7961 12.1236 26.7186 12.1054 26.6398 12.1026C26.5611 12.0999 26.4825 12.1127 26.4087 12.1403C26.3349 12.1679 26.2672 12.2097 26.2095 12.2635C26.1519 12.3172 26.1054 12.3818 26.0727 12.4535C26.04 12.5253 26.0218 12.6027 26.019 12.6815C26.0162 12.7603 26.029 12.8388 26.0566 12.9126C26.0842 12.9865 26.1261 13.0542 26.1799 13.1118L32.326 19.6954C32.3797 19.7531 32.4443 19.7996 32.516 19.8323C32.5878 19.865 32.6652 19.8832 32.744 19.886C32.8228 19.8887 32.9013 19.876 32.9751 19.8484C33.049 19.8208 33.1167 19.7789 33.1743 19.7251C33.232 19.6714 33.2785 19.6068 33.3111 19.5351C33.3438 19.4633 33.3621 19.3859 33.3648 19.3071C33.3676 19.2283 33.3548 19.1498 33.3272 19.076C33.2996 19.0021 33.2577 18.9345 33.204 18.8768L27.0579 12.2932Z" fill="white"/>
</svg>
