<svg width="20" height="25" viewBox="0 0 20 25" fill="none" xmlns="http://www.w3.org/2000/svg">
<path d="M17.7344 3.2597H14.1305V2.11742C14.1297 1.73529 13.9775 1.36904 13.7073 1.09883C13.4371 0.828618 13.0708 0.676461 12.6887 0.675659H6.93127C6.54892 0.676127 6.18234 0.828136 5.91186 1.09838C5.64138 1.36863 5.48905 1.73507 5.48825 2.11742V3.2597H1.88435C1.52095 3.2601 1.17255 3.40464 0.915579 3.6616C0.658613 3.91857 0.514074 4.26698 0.513672 4.63038V6.11185C0.51414 6.47524 0.658701 6.8236 0.915653 7.08055C1.1726 7.3375 1.52097 7.48207 1.88435 7.48253H1.90231V22.4164C1.90285 22.9222 2.104 23.4071 2.46164 23.7648C2.81927 24.1225 3.30418 24.3237 3.80999 24.3243H15.8087C16.3145 24.3237 16.7994 24.1225 17.1571 23.7648C17.5147 23.4071 17.7159 22.9222 17.7164 22.4164V7.48253H17.7344C18.0977 7.48207 18.446 7.3375 18.703 7.08054C18.9599 6.82358 19.1044 6.47521 19.1048 6.11185V4.63038C19.1044 4.267 18.96 3.91859 18.703 3.66162C18.4461 3.40465 18.0977 3.2601 17.7344 3.2597ZM6.37354 2.11742C6.37401 1.96976 6.43296 1.8283 6.53749 1.72401C6.64202 1.61971 6.78361 1.56108 6.93127 1.56095H12.6874C12.8349 1.56142 12.9761 1.62019 13.0804 1.72445C13.1847 1.82871 13.2434 1.96998 13.2439 2.11742V3.2597H6.37354V2.11742ZM16.8311 22.4164C16.8308 22.6875 16.723 22.9474 16.5314 23.1391C16.3397 23.3308 16.0798 23.4387 15.8087 23.439H3.80999C3.53889 23.4387 3.279 23.3308 3.08733 23.1391C2.89567 22.9474 2.78787 22.6875 2.7876 22.4164V7.48253H16.8311V22.4164ZM18.2195 6.11185C18.2194 6.24052 18.1683 6.3639 18.0773 6.45491C17.9864 6.54592 17.863 6.59711 17.7344 6.59724H1.88435C1.75566 6.59711 1.63228 6.54593 1.54128 6.45493C1.45028 6.36393 1.3991 6.24054 1.39896 6.11185V4.63038C1.3991 4.50169 1.45028 4.3783 1.54128 4.2873C1.63228 4.1963 1.75566 4.14512 1.88435 4.14499H17.7344C17.863 4.14512 17.9864 4.19631 18.0773 4.28732C18.1683 4.37833 18.2194 4.50171 18.2195 4.63038V6.11185Z" fill="white"/>
<path d="M9.80951 20.4773C9.86765 20.4774 9.92523 20.4659 9.97894 20.4437C10.0327 20.4215 10.0815 20.3889 10.1226 20.3478C10.1637 20.3067 10.1963 20.2578 10.2185 20.2041C10.2408 20.1504 10.2522 20.0928 10.2522 20.0347V10.8869C10.2522 10.7695 10.2055 10.6569 10.1225 10.5739C10.0395 10.4908 9.92691 10.4442 9.80951 10.4442C9.69212 10.4442 9.57953 10.4908 9.49651 10.5739C9.4135 10.6569 9.36687 10.7695 9.36687 10.8869V20.0347C9.36687 20.1521 9.4135 20.2647 9.49651 20.3477C9.57953 20.4307 9.69212 20.4773 9.80951 20.4773ZM13.6878 20.4773C13.8052 20.4773 13.9178 20.4307 14.0008 20.3477C14.0839 20.2647 14.1305 20.1521 14.1305 20.0347V10.8869C14.1305 10.7695 14.0839 10.6569 14.0008 10.5739C13.9178 10.4908 13.8052 10.4442 13.6878 10.4442C13.5704 10.4442 13.4579 10.4908 13.3748 10.5739C13.2918 10.6569 13.2452 10.7695 13.2452 10.8869V20.0347C13.2452 20.1521 13.2918 20.2647 13.3748 20.3477C13.4579 20.4307 13.5704 20.4773 13.6878 20.4773ZM5.93093 20.4773C6.04832 20.4773 6.16091 20.4307 6.24392 20.3477C6.32694 20.2647 6.37357 20.1521 6.37357 20.0347V10.8869C6.37357 10.7695 6.32694 10.6569 6.24392 10.5739C6.16091 10.4908 6.04832 10.4442 5.93093 10.4442C5.81353 10.4442 5.70094 10.4908 5.61793 10.5739C5.53492 10.6569 5.48828 10.7695 5.48828 10.8869V20.0347C5.48828 20.1521 5.53492 20.2647 5.61793 20.3477C5.70094 20.4307 5.81353 20.4773 5.93093 20.4773Z" fill="white"/>
</svg>
