<svg width="33" height="35" viewBox="0 0 33 35" fill="none" xmlns="http://www.w3.org/2000/svg">
<path d="M22.5703 16.9219H21.8025C21.5083 14.8846 19.6773 14.3203 18.6679 14.3203C17.1168 14.3203 16.5156 15.6754 16.0855 16.9219H12.3866C12.5392 16.3189 12.9925 15.4766 14.332 15.4766C14.4853 15.4766 14.6324 15.4157 14.7408 15.3072C14.8492 15.1988 14.9101 15.0518 14.9101 14.8984C14.9101 14.7451 14.8492 14.5981 14.7408 14.4896C14.6324 14.3812 14.4853 14.3203 14.332 14.3203C12.2103 14.3203 11.4084 15.7986 11.2084 16.9219H10.4297C10.2763 16.9219 10.1293 16.9828 10.0209 17.0912C9.91245 17.1996 9.85154 17.3467 9.85154 17.5C9.85154 17.6533 9.91245 17.8004 10.0209 17.9088C10.1293 18.0172 10.2763 18.0781 10.4297 18.0781H11.2084C11.4084 19.2014 12.2109 20.6797 14.332 20.6797C15.8831 20.6797 16.4844 19.3246 16.9145 18.0781H20.6255C20.3046 19.457 18.8529 19.5217 18.6651 19.5234C18.5117 19.5237 18.3648 19.5849 18.2566 19.6936C18.1484 19.8022 18.0878 19.9494 18.0881 20.1027C18.0884 20.256 18.1496 20.403 18.2582 20.5112C18.3669 20.6194 18.514 20.68 18.6674 20.6797C19.6768 20.6797 21.5077 20.1154 21.802 18.0781H22.5703C22.7236 18.0781 22.8707 18.0172 22.9791 17.9088C23.0875 17.8004 23.1484 17.6533 23.1484 17.5C23.1484 17.3467 23.0875 17.1996 22.9791 17.0912C22.8707 16.9828 22.7236 16.9219 22.5703 16.9219ZM18.6679 15.4766C18.8524 15.4766 20.3081 15.5251 20.6266 16.9219H17.3174C17.6632 16.0125 18.0106 15.4766 18.6679 15.4766ZM14.332 19.5234C13.0064 19.5234 12.5496 18.6811 12.3918 18.0781H15.6825C15.3368 18.9875 14.9888 19.5234 14.332 19.5234ZM29.2181 17.4983V3.04688C29.2181 0.760391 27.3271 0.15625 26.3275 0.15625H6.67185C4.38537 0.15625 3.78122 1.66862 3.78122 2.46875V17.4983H0.314209V24.4358H32.6857V17.4983H29.2181ZM9.52605 1.3125H23.471C23.6037 2.48436 24.13 3.57655 24.9639 4.41047C25.7979 5.2444 26.89 5.77072 28.0619 5.90339V23.2743H23.704C25.0106 21.6475 25.75 19.6107 25.75 17.5C25.75 12.3998 21.6002 8.25 16.5 8.25C11.3998 8.25 7.24997 12.3998 7.24997 17.5C7.24997 19.6107 7.98997 21.6475 9.29596 23.2743H4.93747V5.33567C7.47544 5.1287 9.26358 3.55562 9.52605 1.3125ZM10.8505 23.2743C10.0789 22.5232 9.46525 21.6255 9.04549 20.6339C8.62574 19.6423 8.40839 18.5768 8.40622 17.5C8.40622 13.0369 12.0368 9.40625 16.5 9.40625C20.9631 9.40625 24.5937 13.0369 24.5937 17.5C24.5937 19.6749 23.7017 21.7631 22.15 23.2743H10.8505ZM28.0619 3.04688V4.735C27.1989 4.60924 26.3996 4.20818 25.7829 3.5915C25.1662 2.97482 24.7652 2.1755 24.6394 1.3125H26.3241C26.6143 1.31597 28.0619 1.41541 28.0619 3.04688ZM6.67185 1.3125H8.35882C8.08826 3.09312 6.5753 3.99962 4.93747 4.17017V2.47684C4.94326 2.28259 5.05368 1.3125 6.67185 1.3125ZM1.47046 18.6545H3.78122V23.2789H1.47046V18.6545ZM31.5295 23.2789H29.2181V18.6545H31.5295V23.2789ZM20.5954 29.0625H18.8622V26.1719C18.8622 26.0185 18.8013 25.8715 18.6929 25.7631C18.5844 25.6547 18.4374 25.5938 18.2841 25.5938H13.6568C13.5034 25.5938 13.3564 25.6547 13.248 25.7631C13.1395 25.8715 13.0786 26.0185 13.0786 26.1719V29.0625H11.3454C11.2311 29.0625 11.1193 29.0964 11.0243 29.16C10.9292 29.2235 10.8552 29.3138 10.8114 29.4194C10.7677 29.525 10.7562 29.6412 10.7785 29.7534C10.8008 29.8655 10.8559 29.9685 10.9367 30.0494L15.5617 34.6744C15.6152 34.7282 15.6789 34.771 15.7491 34.8002C15.8192 34.8293 15.8944 34.8443 15.9704 34.8443C16.0464 34.8443 16.1216 34.8293 16.1917 34.8002C16.2619 34.771 16.3256 34.7282 16.3791 34.6744L21.0041 30.0494C21.085 29.9685 21.14 29.8655 21.1623 29.7534C21.1846 29.6412 21.1732 29.525 21.1294 29.4194C21.0857 29.3138 21.0116 29.2235 20.9165 29.16C20.8215 29.0964 20.7097 29.0625 20.5954 29.0625ZM15.9704 33.4482L12.741 30.2188H13.6562C13.8095 30.2188 13.9566 30.1578 14.065 30.0494C14.1734 29.941 14.2343 29.794 14.2343 29.6406V26.75H17.7054V29.6406C17.7054 29.794 17.7663 29.941 17.8747 30.0494C17.9831 30.1578 18.1302 30.2188 18.2835 30.2188H19.1992L15.9704 33.4482Z" fill="white"/>
</svg>
