<svg width="23" height="23" viewBox="0 0 23 23" fill="none" xmlns="http://www.w3.org/2000/svg">
<path fill-rule="evenodd" clip-rule="evenodd" d="M18.0412 1.15534L1.67545 17.5211C1.62359 17.573 1.58802 17.639 1.57308 17.7108L0.799827 21.477C0.761389 21.6643 0.771314 21.8582 0.828667 22.0406C0.88602 22.223 0.988907 22.3878 1.12762 22.5193C1.26632 22.6509 1.43628 22.745 1.62143 22.7926C1.80659 22.8403 2.00083 22.84 2.18583 22.7917L5.74758 21.8613C5.81217 21.8447 5.87111 21.8111 5.9182 21.7638L22.284 5.3981C22.4949 5.18706 22.6134 4.9009 22.6134 4.60253C22.6134 4.30416 22.4949 4.018 22.284 3.80697L19.6323 1.15534C19.4213 0.944417 19.1351 0.825928 18.8368 0.825928C18.5384 0.825928 18.2522 0.944417 18.0412 1.15534ZM2.33395 17.9231L5.51583 21.1053L5.45958 21.1616L1.99645 22.0661C1.93479 22.0821 1.87006 22.0821 1.80838 22.0662C1.7467 22.0502 1.69009 22.0189 1.64388 21.975C1.59767 21.9312 1.56337 21.8763 1.54423 21.8155C1.52509 21.7548 1.52172 21.6901 1.53445 21.6277L2.2852 17.9718L2.33395 17.9231ZM2.8642 17.3928L6.04645 20.5751L19.5281 7.09309L16.3462 3.91122L2.8642 17.3928ZM20.0583 6.56284L16.8765 3.38097L18.5715 1.68559C18.6418 1.61529 18.7371 1.5758 18.8366 1.5758C18.936 1.5758 19.0314 1.61529 19.1017 1.68559L21.7533 4.33722C21.7882 4.37205 21.8159 4.41341 21.8347 4.45893C21.8536 4.50445 21.8633 4.55325 21.8633 4.60253C21.8633 4.65181 21.8536 4.70061 21.8347 4.74613C21.8159 4.79166 21.7882 4.83302 21.7533 4.86784L20.0583 6.56284Z" fill="white"/>
</svg>
