<svg width="32" height="27" viewBox="0 0 32 27" fill="none" xmlns="http://www.w3.org/2000/svg">
<path d="M31.9551 15.2549L31.9549 15.2546L25.9132 0.55837C25.8827 0.484113 25.8374 0.416402 25.7799 0.359104C25.7224 0.301805 25.6538 0.256041 25.578 0.224425C25.5023 0.192808 25.4208 0.175959 25.3383 0.174838C25.2559 0.173717 25.1739 0.188347 25.0973 0.217893L25.0966 0.218197L0.586081 9.67306C0.486134 9.7149 0.39943 9.78168 0.334814 9.86657C0.234783 9.9169 0.150775 9.99265 0.0917929 10.0857C0.0328113 10.1787 0.00107997 10.2856 0 10.3948L0 26.2168C0 26.3782 0.0661819 26.533 0.183986 26.6471C0.301791 26.7612 0.461568 26.8253 0.628168 26.8253H27.0112C27.1778 26.8253 27.3376 26.7612 27.4554 26.6471C27.5732 26.533 27.6394 26.3782 27.6394 26.2168V17.5755L31.6044 16.0457C31.681 16.0161 31.7509 15.9721 31.81 15.9163C31.8691 15.8606 31.9162 15.7941 31.9488 15.7207C31.9814 15.6472 31.9987 15.5683 31.9998 15.4884C32.0008 15.4085 31.9857 15.3292 31.9551 15.2549ZM26.3831 25.6082H1.25634V11.0033H26.3831V25.6082ZM10.481 9.78929L20.999 5.72912C21.4636 6.20215 22.0221 6.57926 22.641 6.83778C23.2599 7.0963 23.9264 7.23088 24.6003 7.23343L25.6494 9.78929H10.481ZM27.6394 16.2684V10.3948C27.6394 10.2334 27.5732 10.0786 27.4554 9.96448C27.3376 9.85036 27.1778 9.78624 27.0112 9.78624H27.0012L25.6701 6.5476C25.6554 6.52058 25.6381 6.49492 25.6186 6.47093C25.586 6.3292 25.5016 6.20368 25.381 6.11756C25.2603 6.03143 25.1115 5.99051 24.9622 6.00235C24.3385 6.05744 23.7104 5.96059 23.1352 5.7206C22.56 5.48062 22.0559 5.10512 21.6687 4.62827C21.574 4.51509 21.4402 4.43893 21.2921 4.41387C21.1439 4.38882 20.9914 4.41655 20.8627 4.49196C20.8329 4.4954 20.8033 4.50069 20.7742 4.50778L7.93314 9.46128C7.85622 9.49049 7.7861 9.53427 7.72688 9.59007C7.66766 9.64587 7.62054 9.71257 7.58827 9.78624H3.68861L24.9785 1.57402L30.556 15.1414L27.6394 16.2684Z" fill="white"/>
<path d="M2.96121 21.5C3.56147 21.6719 4.10788 21.9864 4.55076 22.4149C4.99364 22.8434 5.31895 23.3723 5.49712 23.9536C5.5358 24.0791 5.61525 24.1892 5.72367 24.2675C5.83209 24.3458 5.96369 24.3881 6.09891 24.3881C6.13151 24.3861 6.16387 24.3814 6.19565 24.3741C6.22384 24.3819 6.25265 24.3876 6.28171 24.3912H21.3577C21.3837 24.3879 21.4093 24.3828 21.4344 24.3759C21.5851 24.4115 21.7442 24.3875 21.8767 24.3094C22.0092 24.2313 22.1042 24.1054 22.1409 23.9594L22.1417 23.9561C22.3194 23.3742 22.6445 22.8446 23.0874 22.4155C23.5303 21.9865 24.077 21.6715 24.6776 21.4994C24.8207 21.457 24.9432 21.3659 25.0224 21.2428C25.1016 21.1198 25.1322 20.9732 25.1085 20.83C25.1169 20.8005 25.123 20.7704 25.1268 20.7399V15.8716C25.1231 15.8411 25.1168 15.811 25.1079 15.7816C25.1317 15.6384 25.1012 15.4917 25.022 15.3686C24.9428 15.2455 24.8202 15.1544 24.677 15.1122C24.0764 14.9401 23.5298 14.6251 23.087 14.1959C22.6443 13.7666 22.3195 13.2369 22.1423 12.6549C22.0984 12.5153 22.0035 12.396 21.8754 12.3192C21.7474 12.2424 21.5949 12.2134 21.4463 12.2374C21.4173 12.2296 21.3877 12.2239 21.3577 12.2204H6.28171C6.25005 12.224 6.21875 12.2301 6.18811 12.2387C6.04033 12.2158 5.88903 12.2455 5.76206 12.3222C5.63509 12.399 5.541 12.5175 5.49712 12.6561C5.31932 13.2379 4.99418 13.7673 4.55127 14.1963C4.10837 14.6252 3.56177 14.9401 2.96121 15.1122C2.81808 15.1546 2.69562 15.2457 2.61642 15.3687C2.53722 15.4918 2.50662 15.6384 2.53028 15.7816C2.52211 15.8111 2.51623 15.8412 2.5127 15.8716V20.7399C2.51631 20.7685 2.5222 20.7968 2.53028 20.8245C2.50537 20.9686 2.53534 21.1165 2.61461 21.2408C2.69388 21.365 2.81706 21.4572 2.96121 21.5ZM3.76903 16.1187C4.39325 15.8758 4.96026 15.5131 5.43592 15.0523C5.91158 14.5915 6.28603 14.0422 6.53674 13.4375H21.1021C21.3529 14.0422 21.7275 14.5915 22.2033 15.0523C22.679 15.5131 23.2461 15.8758 23.8704 16.1187V20.4929C23.2464 20.736 22.6795 21.0989 22.2039 21.5596C21.7283 22.0204 21.3537 22.5695 21.1027 23.1741H6.53674C6.28575 22.5695 5.91119 22.0204 5.43556 21.5596C4.95994 21.0989 4.39308 20.736 3.76903 20.4929V16.1187Z" fill="white"/>
<path d="M13.8196 21.957C15.9012 21.957 17.5886 20.3223 17.5886 18.3058C17.5886 16.2892 15.9012 14.6545 13.8196 14.6545C11.738 14.6545 10.0506 16.2892 10.0506 18.3058C10.0527 20.3215 11.7389 21.955 13.8196 21.957ZM13.8196 15.8716C15.2073 15.8716 16.3323 16.9614 16.3323 18.3058C16.3323 19.6501 15.2073 20.7399 13.8196 20.7399C12.4319 20.7399 11.307 19.6501 11.307 18.3058C11.307 16.9614 12.4319 15.8716 13.8196 15.8716ZM6.90978 19.2186C7.43014 19.2186 7.85203 18.8099 7.85203 18.3058C7.85203 17.8017 7.43014 17.393 6.90978 17.393C6.38942 17.393 5.96753 17.8017 5.96753 18.3058C5.96753 18.81 6.38942 19.2186 6.90978 19.2186ZM6.90978 18.0015C6.99308 18.0015 7.07297 18.0336 7.13187 18.0906C7.19078 18.1477 7.22387 18.2251 7.22387 18.3058C7.22387 18.3865 7.19078 18.4639 7.13187 18.5209C7.07297 18.578 6.99308 18.61 6.90978 18.61C6.82648 18.61 6.74659 18.578 6.68769 18.5209C6.62879 18.4639 6.5957 18.3865 6.5957 18.3058C6.5957 18.2251 6.62879 18.1477 6.68769 18.0906C6.74659 18.0336 6.82648 18.0015 6.90978 18.0015ZM20.7295 19.2186C21.2498 19.2186 21.6717 18.8099 21.6717 18.3058C21.6717 17.8017 21.2498 17.393 20.7295 17.393C20.2091 17.393 19.7872 17.8017 19.7872 18.3058C19.7872 18.81 20.2091 19.2186 20.7295 19.2186ZM20.7295 18.0015C20.8128 18.0015 20.8927 18.0336 20.9516 18.0906C21.0105 18.1477 21.0436 18.2251 21.0436 18.3058C21.0436 18.3865 21.0105 18.4639 20.9516 18.5209C20.8927 18.578 20.8128 18.61 20.7295 18.61C20.6462 18.61 20.5663 18.578 20.5074 18.5209C20.4485 18.4639 20.4154 18.3865 20.4154 18.3058C20.4154 18.2251 20.4485 18.1477 20.5074 18.0906C20.5663 18.0336 20.6462 18.0015 20.7295 18.0015Z" fill="white"/>
</svg>
