<svg xmlns="http://www.w3.org/2000/svg" version="1.1" xmlns:xlink="http://www.w3.org/1999/xlink" width="512" height="512" x="0" y="0" viewBox="0 0 2.833 2.833" style="enable-background:new 0 0 512 512" xml:space="preserve" fill-rule="evenodd" class=""><g><circle cx="1.417" cy="1.417" r="1.417" fill="#673b8d" opacity="1" data-original="#673b8d" class=""></circle><g fill="#fff"><path d="M1.884 2.184H.7a.135.135 0 0 1-.136-.135v-.434H2.02v.434c0 .074-.06.135-.135.135zm-.678-.42H.712c-.027 0-.027-.04 0-.04h.494c.027 0 .027.04 0 .04zm0 .128H.712c-.027 0-.027-.04 0-.04h.494c.027 0 .027.04 0 .04zm0 .127H.712c-.027 0-.027-.04 0-.04h.494c.027 0 .027.04 0 .04zm.636.015h-.279a.048.048 0 0 1-.048-.049v-.212c0-.027.022-.048.048-.048h.28c.026 0 .048.021.048.048v.212a.048.048 0 0 1-.049.049zm-.279-.27a.008.008 0 0 0-.008.009v.026h.035v-.034zm-.008.075v.073h.296v-.073h-.296zm0 .113v.033c0 .005.004.009.008.009h.027v-.042zm.075 0v.042h.053v-.042zm.093 0v.042h.053v-.042zm.093 0v.042h.026a.008.008 0 0 0 .009-.009v-.033zm.035-.153v-.026a.008.008 0 0 0-.009-.008h-.026v.034zm-.075 0v-.034h-.053v.034zm-.093 0v-.034H1.63v.034zm-1.12-.224v-.12H2.02v.12zm0-.16v-.056c0-.075.061-.136.136-.136h1.185c.075 0 .135.061.135.136v.056H.563z" fill="#ffffff" opacity="1" data-original="#ffffff" class=""></path><path d="m2.058 1.336.141.037-.112.42a.143.143 0 0 1-.028.051V1.36l-.001-.023zM.743 1.183l.05-.186.695.186H.743zm.06-.225L.834.842l1.406.377-.03.116-.164-.044a.175.175 0 0 0-.162-.108h-.241L.803.958zM.845.804.859.75a.135.135 0 0 1 .166-.096L2.17.961c.072.02.115.094.095.166l-.014.054L.845.804z" fill="#ffffff" opacity="1" data-original="#ffffff" class=""></path></g></g></svg>