<svg width="110" height="84" viewBox="0 0 110 84" fill="none" xmlns="http://www.w3.org/2000/svg">
<path d="M104.059 10.7795H24.0154C23.3306 10.7795 22.6738 11.0516 22.1896 11.5358C21.7054 12.02 21.4333 12.6768 21.4333 13.3616V70.1667C21.4333 70.8515 21.7054 71.5083 22.1896 71.9925C22.6738 72.4767 23.3306 72.7488 24.0154 72.7488H104.059C105.429 72.7488 106.742 72.2047 107.711 71.2362C108.679 70.2678 109.223 68.9543 109.223 67.5847V15.9436C109.223 14.574 108.679 13.2605 107.711 12.2921C106.742 11.3236 105.429 10.7795 104.059 10.7795Z" fill="#98DB7C"/>
<path d="M97.6038 27.5629C96.2342 27.5629 94.9207 27.0188 93.9522 26.0503C92.9838 25.0819 92.4397 23.7684 92.4397 22.3988C92.4397 21.714 92.1676 21.0572 91.6834 20.573C91.1992 20.0887 90.5424 19.8167 89.8576 19.8167H40.7987C40.1139 19.8167 39.4571 20.0887 38.9729 20.573C38.4886 21.0572 38.2166 21.714 38.2166 22.3988C38.2166 23.7684 37.6725 25.0819 36.7041 26.0503C35.7356 27.0188 34.4221 27.5629 33.0525 27.5629C32.3677 27.5629 31.711 27.8349 31.2267 28.3191C30.7425 28.8034 30.4705 29.4601 30.4705 30.1449V53.3834C30.4705 54.0682 30.7425 54.7249 31.2267 55.2092C31.711 55.6934 32.3677 55.9654 33.0525 55.9654C34.4221 55.9654 35.7356 56.5095 36.7041 57.478C37.6725 58.4464 38.2166 59.7599 38.2166 61.1295C38.2166 61.8143 38.4886 62.4711 38.9729 62.9553C39.4571 63.4395 40.1139 63.7116 40.7987 63.7116H89.8576C90.5424 63.7116 91.1992 63.4395 91.6834 62.9553C92.1676 62.4711 92.4397 61.8143 92.4397 61.1295C92.4397 59.7599 92.9838 58.4464 93.9522 57.478C94.9207 56.5095 96.2342 55.9654 97.6038 55.9654C98.2886 55.9654 98.9453 55.6934 99.4296 55.2092C99.9138 54.7249 100.186 54.0682 100.186 53.3834V30.1449C100.186 29.4601 99.9138 28.8034 99.4296 28.3191C98.9453 27.8349 98.2886 27.5629 97.6038 27.5629Z" fill="#6CBF40"/>
<path d="M24.0153 36.6001H3.35891C2.6741 36.6001 2.01735 36.328 1.53312 35.8438C1.04889 35.3596 0.776855 34.7028 0.776855 34.018C0.776855 33.3332 1.04889 32.6765 1.53312 32.1922C2.01735 31.708 2.6741 31.436 3.35891 31.436H24.0153C24.7001 31.436 25.3569 31.708 25.8411 32.1922C26.3253 32.6765 26.5974 33.3332 26.5974 34.018C26.5974 34.7028 26.3253 35.3596 25.8411 35.8438C25.3569 36.328 24.7001 36.6001 24.0153 36.6001ZM24.0153 23.6898H11.1051C10.4203 23.6898 9.7635 23.4178 9.27928 22.9336C8.79505 22.4493 8.52301 21.7926 8.52301 21.1078C8.52301 20.423 8.79505 19.7662 9.27928 19.282C9.7635 18.7977 10.4203 18.5257 11.1051 18.5257H24.0153C24.7001 18.5257 25.3569 18.7977 25.8411 19.282C26.3253 19.7662 26.5974 20.423 26.5974 21.1078C26.5974 21.7926 26.3253 22.4493 25.8411 22.9336C25.3569 23.4178 24.7001 23.6898 24.0153 23.6898ZM13.6871 49.5103H3.35891C2.6741 49.5103 2.01735 49.2383 1.53312 48.7541C1.04889 48.2698 0.776855 47.6131 0.776855 46.9283C0.776855 46.2435 1.04889 45.5867 1.53312 45.1025C2.01735 44.6183 2.6741 44.3462 3.35891 44.3462H13.6871C14.3719 44.3462 15.0287 44.6183 15.5129 45.1025C15.9971 45.5867 16.2692 46.2435 16.2692 46.9283C16.2692 47.6131 15.9971 48.2698 15.5129 48.7541C15.0287 49.2383 14.3719 49.5103 13.6871 49.5103ZM24.0153 62.4206H13.6871C13.0023 62.4206 12.3456 62.1485 11.8613 61.6643C11.3771 61.1801 11.1051 60.5233 11.1051 59.8385C11.1051 59.1537 11.3771 58.497 11.8613 58.0127C12.3456 57.5285 13.0023 57.2565 13.6871 57.2565H24.0153C24.7001 57.2565 25.3569 57.5285 25.8411 58.0127C26.3253 58.497 26.5974 59.1537 26.5974 59.8385C26.5974 60.5233 26.3253 61.1801 25.8411 61.6643C25.3569 62.1485 24.7001 62.4206 24.0153 62.4206ZM39.5076 5.61546H8.52301C7.83821 5.61546 7.18145 5.34342 6.69722 4.85919C6.213 4.37496 5.94096 3.71821 5.94096 3.03341C5.94096 2.3486 6.213 1.69185 6.69722 1.20762C7.18145 0.723392 7.83821 0.451355 8.52301 0.451355H39.5076C40.1924 0.451355 40.8492 0.723392 41.3334 1.20762C41.8176 1.69185 42.0897 2.3486 42.0897 3.03341C42.0897 3.71821 41.8176 4.37496 41.3334 4.85919C40.8492 5.34342 40.1924 5.61546 39.5076 5.61546ZM78.2384 83.077H42.0897C41.4049 83.077 40.7481 82.805 40.2639 82.3207C39.7797 81.8365 39.5076 81.1797 39.5076 80.4949C39.5076 79.8101 39.7797 79.1534 40.2639 78.6692C40.7481 78.1849 41.4049 77.9129 42.0897 77.9129H78.2384C78.9232 77.9129 79.58 78.1849 80.0642 78.6692C80.5484 79.1534 80.8204 79.8101 80.8204 80.4949C80.8204 81.1797 80.5484 81.8365 80.0642 82.3207C79.58 82.805 78.9232 83.077 78.2384 83.077Z" fill="#98DB7C"/>
<path d="M65.3282 52.0923C71.0323 52.0923 75.6564 47.4682 75.6564 41.7641C75.6564 36.06 71.0323 31.4359 65.3282 31.4359C59.6241 31.4359 55 36.06 55 41.7641C55 47.4682 59.6241 52.0923 65.3282 52.0923Z" fill="white"/>
<path d="M44.6717 45.6373C46.8107 45.6373 48.5447 43.9032 48.5447 41.7642C48.5447 39.6251 46.8107 37.8911 44.6717 37.8911C42.5326 37.8911 40.7986 39.6251 40.7986 41.7642C40.7986 43.9032 42.5326 45.6373 44.6717 45.6373Z" fill="white"/>
<path d="M85.9846 45.6373C88.1237 45.6373 89.8577 43.9032 89.8577 41.7642C89.8577 39.6251 88.1237 37.8911 85.9846 37.8911C83.8456 37.8911 82.1116 39.6251 82.1116 41.7642C82.1116 43.9032 83.8456 45.6373 85.9846 45.6373Z" fill="white"/>
</svg>
